<?xml version="1.0" encoding="utf-8"?>
<!-- Generator: Adobe Illustrator 28.0.0, SVG Export Plug-In . SVG Version: 6.00 Build 0)  -->
<svg version="1.1" id="Layer_1" xmlns="http://www.w3.org/2000/svg" xmlns:xlink="http://www.w3.org/1999/xlink" x="0px" y="0px"
	 viewBox="0 0 121 71.7" style="enable-background:new 0 0 121 71.7;" xml:space="preserve">
<style type="text/css">
	.st0{display:none;}
	.st1{display:inline;}
	.st2{fill:#4D4D4D;}
	.st3{fill:url(#SVGID_1_);}
	.st4{fill:#FFFFFF;}
</style>
<g id="Background" class="st0">
	<g class="st1">
		<rect x="0.1" y="0.1" class="st2" width="121.1" height="71.5"/>
	</g>
</g>
<g id="Ebene_1">
	<g>
		<g>
			<g>
				
					<linearGradient id="SVGID_1_" gradientUnits="userSpaceOnUse" x1="60.1782" y1="1029.6046" x2="60.1782" y2="1005.8466" gradientTransform="matrix(1 0 0 1 0 -1006)">
					<stop  offset="0" style="stop-color:#FF00FF"/>
					<stop  offset="1" style="stop-color:#F7931E"/>
				</linearGradient>
				<path class="st3" d="M82.2,17v6.7L60.4,6.5L38.2,23.7v-6.3L60.6,0.1L82.2,17z"/>
			</g>
			<path class="st4" d="M23.8,31.1h4.7v18.3h-4.7v-2.1c-1.4,1.8-3.4,2.7-5.9,2.7c-2.6,0-4.5-0.9-6.3-2.9c-1.8-1.8-2.7-4.2-2.7-6.9
				s0.9-5,2.7-6.9c1.8-1.8,3.8-2.9,6.3-2.9s4.5,0.9,5.9,2.7V31.1z M15,44.1c0.9,0.9,2.1,1.4,3.6,1.4c1.4,0,2.7-0.5,3.6-1.4
				c0.9-0.9,1.4-2.1,1.4-3.8c0-1.4-0.5-2.7-1.4-3.8c-0.9-0.9-2.1-1.4-3.6-1.4c-1.4,0-2.7,0.5-3.6,1.4s-1.4,2.1-1.4,3.8
				C13.5,41.7,14,43,15,44.1z"/>
			<path class="st4" d="M37.6,34.2c0.3-1.3,1.3-1.9,2.1-2.7c1.1-0.5,2.1-0.9,3.4-0.9v5.3c-1.4-0.2-2.7,0.2-4,0.9
				c-1.1,0.8-1.8,1.9-1.8,3.8v8.8h-4.7V31.1h4.7v3.1C37.4,34.2,37.6,34.2,37.6,34.2z"/>
			<path class="st4" d="M59.3,31.1H64v18.3h-4.7v-2.1c-1.4,1.8-3.4,2.7-5.9,2.7c-2.6,0-4.5-0.9-6.3-2.9c-1.8-1.8-2.7-4.2-2.7-6.9
				s0.9-5,2.7-6.9c1.8-1.8,3.8-2.9,6.3-2.9c2.6,0,4.5,0.9,5.9,2.7V31.1z M50.5,44.1c0.9,0.9,2.1,1.4,3.6,1.4c1.4,0,2.7-0.5,3.6-1.4
				c1-0.9,1.4-2.1,1.4-3.8c0-1.4-0.5-2.7-1.4-3.8c-0.9-0.9-2.1-1.4-3.6-1.4c-1.4,0-2.7,0.5-3.6,1.4c-1,0.9-1.4,2.1-1.4,3.8
				C49,41.7,49.6,43,50.5,44.1z"/>
			<polygon class="st4" points="73.2,31.1 68.5,31.1 68.5,49.4 73.2,45.7 			"/>
			<path class="st4" d="M85.5,42.8c0.8,0.3,0.9,0.8,0.9,1.3c0,1.1-0.9,1.6-2.6,1.6c-0.8,0-1.3-0.2-1.8-0.3l-3.8,2.9
				c1.4,1.1,3.2,1.8,5.6,1.8c2.1,0,4-0.5,5.3-1.4c1.4-1.1,2.1-2.6,2.1-4.3c0-1.3-0.3-2.4-0.9-3.1c-0.3-0.3-0.8-0.8-1.1-1.1
				L85.5,42.8C85.3,42.8,85.5,42.8,85.5,42.8z"/>
			<path class="st4" d="M82.8,37.4c-0.8-0.3-0.9-0.8-0.9-1.3c0-0.5,0.2-0.9,0.5-1.1c0.3-0.3,0.9-0.3,1.4-0.3c0.9,0,1.6,0.3,2.1,0.9
				l3.6-2.7c-0.5-0.5-1.1-0.9-1.8-1.3c-1.3-0.8-2.6-1.1-4.2-1.1c-1.9,0-3.6,0.5-5,1.6c-1.3,1.1-1.9,2.6-1.9,4.3
				c0,1.3,0.3,2.1,0.9,3.1c0.5,0.5,1.1,1.1,1.6,1.4l3.8-3.1C83.4,37.5,82.9,37.5,82.8,37.4z"/>
			<path class="st4" d="M98,38.5h9.3c-0.2-1.3-0.9-2.1-1.6-2.9c-0.9-0.5-1.8-0.9-2.9-0.9c-1.3,0-2.4,0.3-3.2,0.9
				C98.8,36.4,98.3,37.4,98,38.5z M98,42.2c0.8,2.4,2.4,3.4,5.3,3.4c1.8,0,3.2-0.5,4.2-1.8l3.8,2.1c-1.8,2.7-4.5,4-8.2,4
				c-3.1,0-5.4-0.9-7.4-2.7c-1.8-1.8-2.7-4.2-2.7-7.1c0-2.7,0.9-5,2.7-7.1c1.8-1.8,4.2-2.7,7.1-2.7c2.7,0,4.8,0.9,6.7,2.9
				c1.8,1.8,2.7,4.2,2.7,6.9c0,0.5,0,1.3-0.2,1.9C112,42.2,98,42.2,98,42.2z"/>
		</g>
		<g>
			<path class="st4" d="M40.8,63.2h-2.6v4.5c0,0.3,0.2,0.8,0.3,0.9c0.2,0.2,0.5,0.2,0.9,0.3c0.3,0,0.8,0,1.3,0v2.6
				c-1.9,0.2-3.2,0-4-0.5c-0.8-0.5-1.3-1.6-1.3-3.1V63h-1.8v-2.7h1.8v-2.1l2.7-0.9v3.1h2.6v2.7H40.8z"/>
			<path class="st4" d="M50.6,60.5h2.7v10.8h-2.7V70c-0.9,1.1-1.9,1.6-3.6,1.6c-1.4,0-2.7-0.5-3.8-1.6c-1.1-1.1-1.6-2.6-1.6-4
				s0.5-2.9,1.6-4c1.1-1.1,2.4-1.6,3.8-1.6c1.4,0,2.7,0.5,3.6,1.6V60.5z M45.5,68c0.5,0.5,1.3,0.9,2.1,0.9s1.6-0.3,2.1-0.9
				c0.5-0.5,0.9-1.3,0.9-2.1c0-0.9-0.3-1.6-0.9-2.1c-0.5-0.5-1.3-0.9-2.1-0.9s-1.6,0.3-2.1,0.9c-0.5,0.5-0.9,1.3-0.9,2.1
				C44.5,66.8,44.9,67.4,45.5,68z"/>
			<path class="st4" d="M62.2,60c1.4,0,2.7,0.5,3.8,1.6s1.6,2.6,1.6,4s-0.5,2.9-1.6,4c-1.1,1.1-2.4,1.6-3.8,1.6
				c-1.4,0-2.7-0.5-3.4-1.6v1.3h-2.9V55.7h2.7v5.6C59.5,60.7,60.8,60,62.2,60z M59.6,68c0.5,0.5,1.3,0.9,2.1,0.9s1.6-0.3,2.1-0.9
				c0.5-0.5,0.9-1.3,0.9-2.1c0-0.9-0.3-1.6-0.9-2.1c-0.5-0.5-1.3-0.9-2.1-0.9s-1.6,0.3-2.1,0.9c-0.5,0.5-0.9,1.3-0.9,2.1
				C58.8,66.8,59,67.4,59.6,68z"/>
			<path class="st4" d="M69.6,71.3V55.4h2.7v15.9H69.6z"/>
			<path class="st4" d="M77.1,66.9c0.3,1.4,1.4,1.9,3.1,1.9c1.1,0,1.8-0.3,2.4-1.1l2.1,1.3c-1.1,1.6-2.7,2.4-4.7,2.4
				c-1.8,0-3.2-0.5-4.3-1.6c-1.1-1.1-1.6-2.6-1.6-4.2s0.5-3.1,1.6-4.2c1.1-1.1,2.6-1.6,4.2-1.6s2.9,0.5,4,1.6
				c1.1,1.1,1.6,2.6,1.6,4.2c0,0.3,0,0.8-0.2,1.1h-8.2V66.9z M77.1,64.8h5.6c-0.2-0.8-0.5-1.3-0.9-1.6c-0.5-0.3-1.1-0.5-1.6-0.5
				c-0.8,0-1.4,0.2-1.8,0.5C77.7,63.5,77.3,64,77.1,64.8z"/>
		</g>
	</g>
</g>
</svg>
